<?xml version="1.0" standalone="no"?>
<!DOCTYPE svg PUBLIC "-//W3C//DTD SVG 1.1//EN" "http://www.w3.org/Graphics/SVG/1.1/DTD/svg11.dtd" >
<!--
2013-9-30: Created.
-->
<svg>
<metadata>
Created by iconfont
</metadata>
<defs>

<font id="iconfont" horiz-adv-x="1024" >
  <font-face
    font-family="iconfont"
    font-weight="500"
    font-stretch="normal"
    units-per-em="1024"
    ascent="896"
    descent="-128"
  />
    <missing-glyph />
    
    <glyph glyph-name="close" unicode="&#58880;" d="M21.333333 896v-1024M42.666667 896v-1024M64 896v-1024M85.333333 896v-1024M106.666667 896v-1024M128 896v-1024M149.333333 896v-1024M170.666667 896v-1024M192 896v-1024M213.333333 896v-1024M234.666667 896v-1024M256 896v-1024M277.333333 896v-1024M298.666667 896v-1024M320 896v-1024M341.333333 896v-1024M362.666667 896v-1024M384 896v-1024M405.333333 896v-1024M426.666667 896v-1024M448 896v-1024M469.333333 896v-1024M490.666667 896v-1024M512 896v-1024M533.333333 896v-1024M554.666667 896v-1024M576 896v-1024M597.333333 896v-1024M618.666667 896v-1024M640 896v-1024M661.333333 896v-1024M682.666667 896v-1024M704 896v-1024M725.333333 896v-1024M746.666667 896v-1024M768 896v-1024M789.333333 896v-1024M810.666667 896v-1024M832 896v-1024M853.333333 896v-1024M874.666667 896v-1024M896 896v-1024M917.333333 896v-1024M938.666667 896v-1024M960 896v-1024M981.333333 896v-1024M1002.666667 896v-1024M0 874.666667h1024M0 853.333333h1024M0 832h1024M0 810.666667h1024M0 789.333333h1024M0 768h1024M0 746.666667h1024M0 725.333333h1024M0 704h1024M0 682.666667h1024M0 661.333333h1024M0 640h1024M0 618.666667h1024M0 597.333333h1024M0 576h1024M0 554.666667h1024M0 533.333333h1024M0 512h1024M0 490.666667h1024M0 469.333333h1024M0 448h1024M0 426.666667h1024M0 405.333333h1024M0 384h1024M0 362.666667h1024M0 341.333333h1024M0 320h1024M0 298.666667h1024M0 277.333333h1024M0 256h1024M0 234.666667h1024M0 213.333333h1024M0 192h1024M0 170.666667h1024M0 149.333333h1024M0 128h1024M0 106.666667h1024M0 85.333333h1024M0 64h1024M0 42.666667h1024M0 21.333333h1024M0 0h1024M0-21.333333h1024M0-42.666667h1024M0-64h1024M0-85.333333h1024M0-106.666667h1024M810 622L572 384l238-238-60-60L512 324 274 86l-60 60L452 384 214 622l60 60L512 444l238 238z"  horiz-adv-x="1024" />

    
    <glyph glyph-name="tab11" unicode="&#58989;" d="M1010.036364 670.254545C972.8 733.090909 884.363636 751.709091 756.363636 723.7818179999999 686.545455 772.654545 602.763636 802.909091 512 802.909091 281.6 802.909091 93.090909 614.4 93.090909 384c0-13.963636 0-27.927273 2.327273-41.890909C-16.290909 218.76363600000002-9.309091 139.63636399999996 16.290909 95.418182c18.618182-32.581818 60.509091-65.163636 148.945455-65.163637 27.927273 0 60.509091 2.327273 97.745454 11.636364 2.327273 0 4.654545 0 6.981818 2.327273C337.454545-4.654544999999985 421.236364-34.90909099999999 512-34.90909099999999c230.4 0 418.909091 188.509091 418.909091 418.909091 0 13.963636 0 27.927273-2.327273 41.890909 81.454545 88.436364 118.690909 179.2 81.454546 244.363636zM95.418182 144.29090900000006c-6.981818 11.636364-2.327273 39.563636 27.927273 83.781818 13.963636-37.236364 34.909091-72.145455 60.50909-102.4-58.181818-4.654545-81.454545 9.309091-88.436363 18.618182z m670.254545 174.545455c-55.854545-44.218182-118.690909-88.436364-186.181818-125.672728-44.218182-25.6-88.436364-48.872727-134.981818-69.818181-6.981818-2.327273-11.636364-4.654545-18.618182-4.654546-18.618182 0-34.909091 9.309091-41.890909 27.927273-11.636364 23.272727 0 51.2 23.272727 60.509091 41.890909 18.618182 83.781818 41.890909 125.672728 65.163636 62.836364 37.236364 121.018182 76.8 174.545454 118.690909 20.945455 16.290909 48.872727 13.963636 65.163636-6.981818 16.290909-20.945455 11.636364-48.872727-6.981818-65.163636z m74.472728 323.490909c53.527273 2.327273 81.454545-6.981818 88.436363-18.618182 9.309091-13.963636 0-44.218182-27.927273-86.109091-13.963636 39.563636-34.909091 74.472727-60.50909 104.727273z"  horiz-adv-x="1024" />

    
    <glyph glyph-name="tab10" unicode="&#58990;" d="M1010.036364 670.254545C972.8 733.090909 884.363636 751.709091 756.363636 723.7818179999999 686.545455 772.654545 602.763636 802.909091 512 802.909091 281.6 802.909091 93.090909 614.4 93.090909 384c0-13.963636 0-27.927273 2.327273-41.890909C-16.290909 218.76363600000002-9.309091 139.63636399999996 16.290909 95.418182c18.618182-32.581818 60.509091-65.163636 148.945455-65.163637 27.927273 0 60.509091 2.327273 97.745454 11.636364 2.327273 0 4.654545 0 6.981818 2.327273C337.454545-4.654544999999985 421.236364-34.90909099999999 512-34.90909099999999c230.4 0 418.909091 188.509091 418.909091 418.909091 0 13.963636 0 27.927273-2.327273 41.890909 81.454545 88.436364 118.690909 179.2 81.454546 244.363636z m-81.454546-46.545454c9.309091-13.963636 0-44.218182-27.927273-86.109091-13.963636 37.236364-34.909091 72.145455-60.50909 104.727273 53.527273 4.654545 81.454545-6.981818 88.436363-18.618182zM512 709.818182c155.927273 0 286.254545-109.381818 318.836364-253.672727-58.181818-58.181818-139.636364-123.345455-251.345455-186.181819-100.072727-58.181818-200.145455-100.072727-286.254545-123.345454C228.072727 204.79999999999995 186.181818 288.581818 186.181818 384c0 179.2 146.618182 325.818182 325.818182 325.818182zM95.418182 144.29090900000006c-6.981818 11.636364-2.327273 39.563636 27.927273 83.781818 13.963636-37.236364 34.909091-72.145455 60.50909-102.4-58.181818-4.654545-83.781818 9.309091-88.436363 18.618182zM512 58.18181800000002c-41.890909 0-79.127273 6.981818-116.363636 20.945455 74.472727 25.6 151.272727 62.836364 230.4 107.054545 74.472727 44.218182 146.618182 93.090909 209.454545 144.290909C809.890909 176.87272700000005 674.909091 58.18181800000002 512 58.18181800000002z"  horiz-adv-x="1024" />

    
    <glyph glyph-name="tab30" unicode="&#58991;" d="M512 849.454545C256 849.454545 46.545455 640 46.545455 384s209.454545-465.454545 465.454545-465.454545 465.454545 209.454545 465.454545 465.454545S768 849.454545 512 849.454545z m0-837.818181c-204.8 0-372.363636 167.563636-372.363636 372.363636S307.2 756.363636 512 756.363636s372.363636-167.563636 372.363636-372.363636-167.563636-372.363636-372.363636-372.363636zM681.890909 525.963636l-134.981818-134.981818-93.090909 93.090909-176.872727-176.872727c-18.618182-18.618182-18.618182-46.545455 0-65.163636 9.309091-9.309091 20.945455-13.963636 32.581818-13.963637s23.272727 4.654545 32.581818 13.963637l111.709091 111.709091 93.090909-93.09091 202.472727 202.472728c18.618182 18.618182 18.618182 46.545455 0 65.163636s-48.872727 16.290909-67.490909-2.327273z"  horiz-adv-x="1024" />

    
    <glyph glyph-name="tab31" unicode="&#58992;" d="M512 849.454545C256 849.454545 46.545455 640 46.545455 384s209.454545-465.454545 465.454545-465.454545 465.454545 209.454545 465.454545 465.454545S768 849.454545 512 849.454545z m237.381818-388.654545l-202.472727-202.472727-93.090909 93.090909-111.709091-111.709091c-9.309091-9.309091-20.945455-13.963636-32.581818-13.963636s-23.272727 4.654545-32.581818 13.963636c-18.618182 18.618182-18.618182 46.545455 0 65.163636l176.872727 176.872728 93.090909-93.09091 134.981818 134.981819c18.618182 18.618182 46.545455 18.618182 65.163636 0s20.945455-44.218182 2.327273-62.836364z"  horiz-adv-x="1024" />

    
    <glyph glyph-name="tab20" unicode="&#58993;" d="M814.545455 41.890908999999965c0-16.290909-13.963636-30.254545-30.254546-30.254545H239.709091c-16.290909 0-30.254545 13.963636-30.254546 30.254545V244.36363600000004H116.363636v-281.6c0-23.272727 20.945455-44.218182 44.218182-44.218181h702.836364c25.6 0 44.218182 20.945455 44.218182 44.218181V244.36363600000004h-93.090909v-202.472727zM793.6 381.672727c-46.545455 0-86.109091 25.6-104.727273 67.490909-6.981818 16.290909-23.272727 27.927273-41.890909 27.927273h-2.327273c-18.618182 0-37.236364-13.963636-41.890909-32.581818-11.636364-37.236364-48.872727-62.836364-88.436363-62.836364-41.890909 0-76.8 25.6-88.436364 62.836364-6.981818 18.618182-23.272727 30.254545-41.890909 32.581818-18.618182 0-37.236364-9.309091-44.218182-27.927273-18.618182-41.890909-58.181818-67.490909-104.727273-67.490909-62.836364 0-114.036364 51.2-114.036363 111.709091 0 20.945455 6.981818 44.218182 18.618182 60.509091-2.327273 4.654545 0 9.309091 0 11.636364l93.090909 179.2s2.327273 2.327273 2.327272 4.654545c2.327273 4.654545 11.636364 9.309091 13.963637 9.309091h523.636363c4.654545 0 13.963636-4.654545 13.963637-9.309091 0-2.327273 2.327273-2.327273 2.327273-4.654545l93.090909-174.545455c2.327273-4.654545 2.327273-9.309091 6.981818-13.963636 11.636364-18.618182 18.618182-39.563636 18.618182-60.509091 0-62.836364-51.2-114.036364-114.036364-114.036364m179.2 216.436364c0 2.327273 0 2.327273-2.327273 4.654545l-100.072727 188.509091C854.109091 823.854545 812.218182 849.454545 772.654545 849.454545H251.345455C211.781818 849.454545 169.890909 823.854545 151.272727 788.945455l-97.745454-186.181819C34.909091 570.181818 23.272727 532.945455 23.272727 495.709091 23.272727 381.672727 116.363636 290.909091 230.4 290.909091c55.854545 0 107.054545 20.945455 144.290909 58.181818 34.909091-37.236364 83.781818-58.181818 137.309091-58.181818 53.527273 0 102.4 20.945455 137.309091 58.181818 37.236364-37.236364 90.763636-58.181818 144.290909-58.181818 114.036364 0 207.127273 90.763636 207.127273 204.8 0 34.909091-9.309091 69.818182-27.927273 102.4"  horiz-adv-x="1024" />

    
    <glyph glyph-name="tab21" unicode="&#58994;" d="M814.545455 244.36363600000004v-202.472727c0-16.290909-13.963636-30.254545-30.254546-30.254545H239.709091c-16.290909 0-30.254545 13.963636-30.254546 30.254545V244.36363600000004H116.363636v-281.6c0-23.272727 20.945455-44.218182 44.218182-44.218181h702.836364c25.6 0 44.218182 20.945455 44.218182 44.218181V244.36363600000004h-93.090909zM972.8 570.181818l-18.618182 39.563637-90.763636 197.818181c-9.309091 23.272727-39.563636 41.890909-62.836364 41.890909H223.418182c-25.6 0-53.527273-18.618182-62.836364-41.890909L51.2 570.181818C34.909091 542.254545 23.272727 507.345455 23.272727 470.109091 23.272727 372.36363600000004 102.4 290.909091 200.145455 290.909091c72.145455 0 134.981818 44.218182 162.90909 109.381818C384 337.45454500000005 442.181818 290.909091 512 290.909091c69.818182 0 128 46.545455 148.945455 109.381818 27.927273-65.163636 90.763636-109.381818 162.90909-109.381818 97.745455 0 176.872727 81.454545 176.872728 179.2 0 37.236364-11.636364 72.145455-27.927273 100.072727z m-267.636364-4.654545H318.836364c-20.945455 0-39.563636 20.945455-39.563637 46.545454s18.618182 46.545455 39.563637 46.545455h388.654545c20.945455 0 39.563636-20.945455 39.563636-46.545455-2.327273-25.6-20.945455-46.545455-41.890909-46.545454z"  horiz-adv-x="1024" />

    
    <glyph glyph-name="tab40" unicode="&#58995;" d="M507.345455 384c-141.963636 0-256 114.036364-256 256s114.036364 256 256 256 256-114.036364 256-256-114.036364-256-256-256z m0 418.909091c-90.763636 0-162.909091-72.145455-162.909091-162.909091s72.145455-162.909091 162.909091-162.909091 162.909091 72.145455 162.90909 162.909091-72.145455 162.909091-162.90909 162.909091zM870.4-128H153.6c-46.545455 0-83.781818 37.236364-83.781818 83.781818v116.363637C69.818182 218.76363600000002 188.509091 337.45454500000005 337.454545 337.45454500000005h351.418182C835.490909 337.45454500000005 954.181818 218.76363600000002 954.181818 69.81818199999998v-116.363637c0-44.218182-37.236364-81.454545-83.781818-81.454545zM162.909091-34.90909099999999h698.181818v104.727273c0 95.418182-76.8 174.545455-174.545454 174.545454h-349.09091C242.036364 244.36363600000004 162.909091 167.56363599999997 162.909091 69.81818199999998V-34.90909099999999z"  horiz-adv-x="1024" />

    
    <glyph glyph-name="tab41" unicode="&#58996;" d="M507.345455 637.672727m-256 0a256 256 0 1 1 512 0 256 256 0 1 1-512 0ZM686.545455 342.10909100000003h-349.09091C188.509091 342.10909100000003 69.818182 221.090909 69.818182 72.14545499999997v-116.363637c0-46.545455 37.236364-83.781818 83.781818-83.781818h716.8c46.545455 0 83.781818 37.236364 83.781818 83.781818v116.363637c0 148.945455-118.690909 269.963636-267.636363 269.963636zM768 107.05454499999996h-93.090909c-25.6 0-46.545455 20.945455-46.545455 46.545455s20.945455 46.545455 46.545455 46.545455h93.090909c25.6 0 46.545455-20.945455 46.545455-46.545455s-20.945455-46.545455-46.545455-46.545455z"  horiz-adv-x="1024" />

    
    <glyph glyph-name="address" unicode="&#58997;" d="M877.381818 437.527273C877.381818 640 712.145455 802.909091 512 802.909091S146.618182 640 146.618182 437.527273v-18.618182C146.618182 141.96363599999995 512-34.90909099999999 512-34.90909099999999s365.381818 176.872727 365.381818 456.145455c-2.327273 4.654545 0 11.636364 0 16.290909zM512 311.85454500000003c-81.454545 0-146.618182 65.163636-146.618182 146.618182s65.163636 146.618182 146.618182 146.618182 146.618182-65.163636 146.618182-146.618182-65.163636-146.618182-146.618182-146.618182z m0 0"  horiz-adv-x="1024" />

    
    <glyph glyph-name="aboutus" unicode="&#58998;" d="M409.6 756.363636H195.490909C165.236364 756.363636 139.636364 730.763636 139.636364 700.509091v-214.109091C139.636364 456.145455 165.236364 430.545455 195.490909 430.545455h214.109091c30.254545 0 55.854545 25.6 55.854545 55.854545V700.509091C465.454545 730.763636 439.854545 756.363636 409.6 756.363636zM837.818182 756.363636H605.090909c-25.6 0-46.545455-20.945455-46.545454-46.545454v-232.727273c0-25.6 20.945455-46.545455 46.545454-46.545454h232.727273c25.6 0 46.545455 20.945455 46.545454 46.545454V709.818182c0 25.6-20.945455 46.545455-46.545454 46.545454zM409.6 337.45454500000005H195.490909C165.236364 337.45454500000005 139.636364 311.85454500000003 139.636364 281.6v-214.109091C139.636364 37.23636399999998 165.236364 11.636363999999958 195.490909 11.636363999999958h214.109091c30.254545 0 55.854545 25.6 55.854545 55.854545v214.109091c0 30.254545-25.6 55.854545-55.854545 55.854545zM828.509091 337.45454500000005h-214.109091c-30.254545 0-55.854545-25.6-55.854545-55.854545v-214.109091c0-30.254545 25.6-55.854545 55.854545-55.854545h214.109091c30.254545 0 55.854545 25.6 55.854545 55.854545v214.109091c0 30.254545-25.6 55.854545-55.854545 55.854545z"  horiz-adv-x="1024" />

    
    <glyph glyph-name="bank" unicode="&#58999;" d="M858.763636 128H814.545455V411.927273h30.254545c58.181818 0 83.781818 62.836364 41.890909 95.418182L553.890909 765.672727c-23.272727 18.618182-58.181818 18.618182-81.454545 0l-335.127273-256C93.090909 477.090909 121.018182 414.254545 179.2 414.254545H209.454545V128H165.236364C139.636364 128 116.363636 104.72727299999997 116.363636 79.12727299999995v-39.563637C116.363636 11.636363999999958 139.636364-11.636363999999958 165.236364-11.636363999999958h691.2c27.927273 0 48.872727 23.272727 48.872727 48.872728v39.563636c2.327273 27.927273-20.945455 51.2-46.545455 51.2zM674.909091 128h-93.090909V411.927273h93.090909V128zM349.090909 411.927273h93.090909V128h-93.090909V411.927273z"  horiz-adv-x="1024" />

    
    <glyph glyph-name="card" unicode="&#59000;" d="M912.290909 686.545455H111.709091c-23.272727 0-41.890909-18.618182-41.890909-41.89091V500.363636h884.363636v144.290909c0 23.272727-18.618182 41.890909-41.890909 41.89091zM69.818182 123.34545500000002c0-23.272727 18.618182-41.890909 41.890909-41.89091h800.581818c23.272727 0 41.890909 18.618182 41.890909 41.89091V453.818182H69.818182v-330.472727zM162.909091 267.63636399999996h232.727273v-93.090909H162.909091v93.090909z"  horiz-adv-x="1024" />

    
    <glyph glyph-name="earphone" unicode="&#59001;" d="M884.363636 414.254545v32.581819c0 204.8-167.563636 372.363636-372.363636 372.363636s-372.363636-167.563636-372.363636-372.363636v-262.981819c0-53.527273 41.890909-95.418182 95.418181-95.418181H372.363636v325.818181h-139.636363v32.581819c0 153.6 125.672727 279.272727 279.272727 279.272727s279.272727-125.672727 279.272727-279.272727v-32.581819h-139.636363v-325.818181h139.636363c0-25.6-20.945455-46.545455-46.545454-46.545455H507.345455v-93.090909H744.727273c76.8 0 139.636364 62.836364 139.636363 139.636364v325.818181z"  horiz-adv-x="1024" />

    
    <glyph glyph-name="loan" unicode="&#59002;" d="M898.327273 788.945455H125.672727C107.054545 788.945455 93.090909 774.981818 93.090909 756.363636v-214.109091c0-18.618182 13.963636-32.581818 32.581818-32.581818h81.454546V677.236364h605.090909v-165.236364h86.109091c18.618182 0 32.581818 13.963636 32.581818 32.581818V756.363636c0 18.618182-13.963636 32.581818-32.581818 32.581819zM256 23.27272700000003c0-25.6 20.945455-44.218182 44.218182-44.218182h423.563636c25.6 0 44.218182 20.945455 44.218182 44.218182V630.6909089999999H256v-607.418182z m160.581818 309.527273c-13.963636 0-23.272727 11.636364-23.272727 23.272727 0 13.963636 11.636364 23.272727 23.272727 23.272728h62.836364L428.218182 430.545455c-9.309091 9.309091-9.309091 23.272727 0 32.581818 9.309091 9.309091 23.272727 9.309091 32.581818 0l51.2-51.2 51.2 51.2c9.309091 9.309091 23.272727 9.309091 32.581818 0 9.309091-9.309091 9.309091-23.272727 0-32.581818l-51.2-51.2H605.090909c13.963636 0 23.272727-11.636364 23.272727-23.272728 0-13.963636-11.636364-23.272727-23.272727-23.272727h-69.818182v-46.545455h72.145455c13.963636 0 23.272727-11.636364 23.272727-23.272727 0-13.963636-11.636364-23.272727-23.272727-23.272727H535.272727v-72.145455c0-13.963636-11.636364-23.272727-23.272727-23.272727-13.963636 0-23.272727 11.636364-23.272727 23.272727v72.145455h-72.145455c-13.963636 0-23.272727 11.636364-23.272727 23.272727 0 13.963636 11.636364 23.272727 23.272727 23.272727H488.727273v46.545455h-72.145455z"  horiz-adv-x="1024" />

    
    <glyph glyph-name="help" unicode="&#59003;" d="M849.454545 733.090909H172.218182C139.636364 733.090909 114.036364 707.490909 114.036364 674.909091v-491.054546C114.036364 153.60000000000002 139.636364 128 172.218182 128h232.727273l104.727272-93.090909 104.727273 93.090909h235.054545c32.581818 0 58.181818 25.6 58.181819 58.181818V677.236364C905.309091 707.490909 879.709091 733.090909 849.454545 733.090909zM325.818182 360.72727299999997c-39.563636 0-69.818182 30.254545-69.818182 69.818182s30.254545 69.818182 69.818182 69.818181 69.818182-30.254545 69.818182-69.818181-32.581818-69.818182-69.818182-69.818182z m188.509091 0c-39.563636 0-69.818182 30.254545-69.818182 69.818182s30.254545 69.818182 69.818182 69.818181 69.818182-30.254545 69.818182-69.818181-34.909091-69.818182-69.818182-69.818182z m181.527272 0c-39.563636 0-69.818182 30.254545-69.818181 69.818182s30.254545 69.818182 69.818181 69.818181 69.818182-30.254545 69.818182-69.818181-30.254545-69.818182-69.818182-69.818182z"  horiz-adv-x="1024" />

    
    <glyph glyph-name="like" unicode="&#59004;" d="M218.763636 479.418182h-46.545454c-25.6 0-46.545455-20.945455-46.545455-46.545455v-372.363636c0-25.6 20.945455-46.545455 46.545455-46.545455h46.545454c25.6 0 46.545455 20.945455 46.545455 46.545455v372.363636c0 25.6-20.945455 46.545455-46.545455 46.545455zM842.472727 479.418182H581.818182l6.981818 13.963636 46.545455 174.545455v4.654545 4.654546 4.654545V686.545455v4.654545 4.654545c0 2.327273-2.327273 2.327273-2.327273 4.654546s0 2.327273-2.327273 4.654545c0 2.327273-2.327273 2.327273-2.327273 4.654546-2.327273-2.327273-4.654545 0-4.654545 0l-44.218182 44.218182-76.8-76.8-165.236364-162.909091c-13.963636-13.963636-23.272727-51.2-23.272727-81.454546V44.218181999999956c0-16.290909 16.290909-30.254545 37.236364-30.254546h384c20.945455 0 44.218182 13.963636 51.2 30.254546l109.381818 258.327273v118.690909c-2.327273 30.254545-25.6 58.181818-53.527273 58.181818z"  horiz-adv-x="1024" />

    
    <glyph glyph-name="lock" unicode="&#59005;" d="M807.563636 500.363636H768v137.309091c0 102.4-83.781818 186.181818-186.181818 186.181818h-139.636364c-102.4 0-186.181818-83.781818-186.181818-186.181818V500.363636H216.436364C186.181818 500.363636 162.909091 477.090909 162.909091 449.163636v-451.490909C162.909091-34.90909099999999 186.181818-58.18181800000002 216.436364-58.18181800000002h591.127272c30.254545 0 53.527273 23.272727 53.527273 53.527273V449.163636c0 27.927273-23.272727 51.2-53.527273 51.2zM349.090909 640c0 51.2 41.890909 93.090909 93.090909 93.090909h139.636364c51.2 0 93.090909-41.890909 93.090909-93.090909v-139.636364H349.090909v139.636364z m258.327273-444.509091c13.963636 0 23.272727-11.636364 23.272727-23.272727 0-13.963636-11.636364-23.272727-23.272727-23.272727H535.272727v-72.145455c0-13.963636-11.636364-23.272727-23.272727-23.272727-13.963636 0-23.272727 11.636364-23.272727 23.272727v72.145455h-72.145455c-13.963636 0-23.272727 11.636364-23.272727 23.272727 0 13.963636 11.636364 23.272727 23.272727 23.272727H488.727273v46.545455h-72.145455c-13.963636 0-23.272727 11.636364-23.272727 23.272727 0 13.963636 11.636364 23.272727 23.272727 23.272727h62.836364l-51.2 51.2c-9.309091 9.309091-9.309091 23.272727 0 32.581818 9.309091 9.309091 23.272727 9.309091 32.581818 0l51.2-51.2 51.2 51.2c9.309091 9.309091 23.272727 9.309091 32.581818 0 9.309091-9.309091 9.309091-23.272727 0-32.581818l-51.2-51.2H605.090909c13.963636 0 23.272727-11.636364 23.272727-23.272727 0-13.963636-11.636364-23.272727-23.272727-23.272727h-72.145454v-46.545455h74.472727z"  horiz-adv-x="1024" />

    
    <glyph glyph-name="lock1" unicode="&#59006;" d="M807.563636 500.363636H768v139.636364c0 102.4-83.781818 186.181818-186.181818 186.181818h-139.636364c-102.4 0-186.181818-83.781818-186.181818-186.181818v-139.636364H216.436364C186.181818 500.363636 162.909091 477.090909 162.909091 449.163636v-451.490909C162.909091-32.581818 186.181818-58.18181800000002 216.436364-58.18181800000002h591.127272c30.254545 0 53.527273 23.272727 53.527273 53.527273V449.163636c0 27.927273-23.272727 51.2-53.527273 51.2zM349.090909 640c0 51.2 41.890909 93.090909 93.090909 93.090909h139.636364c51.2 0 93.090909-41.890909 93.090909-93.090909v-139.636364H349.090909v139.636364z m209.454546-428.218182v-76.8c0-25.6-20.945455-46.545455-46.545455-46.545454s-46.545455 20.945455-46.545455 46.545454v76.8c-27.927273 16.290909-46.545455 46.545455-46.545454 79.127273 0 51.2 41.890909 93.090909 93.090909 93.090909s93.090909-41.890909 93.090909-93.090909c0-34.909091-18.618182-62.836364-46.545454-79.127273z"  horiz-adv-x="1024" />

    
    <glyph glyph-name="product" unicode="&#59007;" d="M302.545455 430.545455H162.909091c-25.6 0-46.545455-20.945455-46.545455-46.545455v-279.272727c0-25.6 20.945455-46.545455 46.545455-46.545455h139.636364c25.6 0 46.545455 20.945455 46.545454 46.545455V384c0 25.6-20.945455 46.545455-46.545454 46.545455zM581.818182 570.181818h-139.636364c-25.6 0-46.545455-20.945455-46.545454-46.545454v-418.909091c0-25.6 20.945455-46.545455 46.545454-46.545455h139.636364c25.6 0 46.545455 20.945455 46.545454 46.545455V523.636364c0 25.6-20.945455 46.545455-46.545454 46.545454zM861.090909 709.818182h-139.636364c-25.6 0-46.545455-20.945455-46.545454-46.545455v-558.545454c0-25.6 20.945455-46.545455 46.545454-46.545455h139.636364c25.6 0 46.545455 20.945455 46.545455 46.545455V663.272727c0 25.6-20.945455 46.545455-46.545455 46.545455z"  horiz-adv-x="1024" />

    
    <glyph glyph-name="moneybag" unicode="&#59008;" d="M344.436364 779.636364l4.654545-6.981819v-2.327272l60.509091-74.472728h202.472727l60.509091 74.472728 6.981818 9.309091-2.327272 2.327272c0 2.327273 2.327273 4.654545 2.327272 6.981819 0 11.636364-6.981818 18.618182-16.290909 23.272727v2.327273S584.145455 826.181818 512 826.181818c-69.818182 0-151.272727-11.636364-151.272727-11.636363v-2.327273c-9.309091-4.654545-16.290909-11.636364-16.290909-23.272727V779.636364zM614.4 649.309091h-204.8C249.018182 593.454545 116.363636 416.581818 116.363636 246.69090900000003 116.363636 41.890908999999965 232.727273-58.18181800000002 512-58.18181800000002s395.636364 100.072727 395.636364 304.872727c0 169.890909-132.654545 346.763636-293.236364 402.618182z m-2.327273-393.309091c13.963636 0 25.6-11.636364 25.6-25.6 0-13.963636-11.636364-25.6-25.6-25.6H535.272727V128c0-13.963636-11.636364-25.6-25.6-25.6s-25.6 11.636364-25.6 25.6v76.8h-76.8c-13.963636 0-25.6 11.636364-25.6 25.6 0 13.963636 11.636364 25.6 25.6 25.6h76.8v51.2h-76.8c-13.963636 0-25.6 11.636364-25.6 25.6 0 13.963636 11.636364 25.6 25.6 25.6h65.163637L418.909091 411.927273c-9.309091 9.309091-9.309091 25.6 0 34.909091 9.309091 9.309091 25.6 9.309091 34.909091 0l53.527273-53.527273 53.527272 53.527273c9.309091 9.309091 25.6 9.309091 34.909091 0 9.309091-9.309091 9.309091-25.6 0-34.909091l-53.527273-53.527273h65.163637c13.963636 0 25.6-11.636364 25.6-25.6 0-13.963636-11.636364-25.6-25.6-25.6h-76.8v-51.2h81.454545z"  horiz-adv-x="1024" />

    
    <glyph glyph-name="redpacket" unicode="&#59009;" d="M954.181818 477.090909v186.181818c0 25.6-20.945455 46.545455-46.545454 46.545455H116.363636c-25.6 0-46.545455-20.945455-46.545454-46.545455v-186.181818c51.2-2.327273 90.763636-41.890909 90.763636-93.090909S121.018182 293.236364 69.818182 290.909091v-186.181818c0-25.6 20.945455-46.545455 46.545454-46.545455h791.272728c25.6 0 46.545455 20.945455 46.545454 46.545455v186.181818c-51.2 0-93.090909 41.890909-93.090909 93.090909s41.890909 93.090909 93.090909 93.090909z m-256-221.090909H325.818182v93.090909h372.363636v-93.090909z m0 162.909091H325.818182v93.090909h372.363636v-93.090909z"  horiz-adv-x="1024" />

    
    <glyph glyph-name="safety" unicode="&#59010;" d="M512 779.636364L160.581818 677.236364v-290.909091s4.654545-132.654545 72.145455-214.109091c125.672727-153.6 279.272727-183.854545 279.272727-183.854546s179.2 53.527273 279.272727 183.854546c62.836364 83.781818 72.145455 214.109091 72.145455 214.109091V677.236364S551.563636 779.636364 512 779.636364z m34.909091-488.727273l-65.163636-65.163636-65.163637 65.163636-97.745454 97.745454 65.163636 65.163637 97.745455-97.745455 197.818181 197.818182 65.163637-65.163636-197.818182-197.818182z"  horiz-adv-x="1024" />

    
    <glyph glyph-name="record" unicode="&#59011;" d="M814.545455 779.636364H209.454545c-25.6 0-46.545455-20.945455-46.545454-46.545455v-698.181818c0-25.6 20.945455-46.545455 46.545454-46.545455h605.09091c25.6 0 46.545455 20.945455 46.545454 46.545455V733.090909c0 25.6-20.945455 46.545455-46.545454 46.545455z m-69.818182-442.181819H279.272727v93.09091h465.454546v-93.09091z m0 162.909091H279.272727v93.090909h465.454546v-93.090909z"  horiz-adv-x="1024" />

    
    <glyph glyph-name="set" unicode="&#59012;" d="M884.363636 474.763636h-97.745454c-4.654545 16.290909-11.636364 30.254545-18.618182 44.218182l69.818182 69.818182c18.618182 18.618182 18.618182 48.872727 0 65.163636l-60.509091 60.509091c-18.618182 18.618182-48.872727 18.618182-65.163636 0l-69.818182-69.818182c-13.963636 6.981818-27.927273 13.963636-41.890909 18.618182V756.363636c0 25.6-20.945455 46.545455-46.545455 46.545455H465.454545c-25.6 0-46.545455-20.945455-46.545454-46.545455v-93.090909c-13.963636-4.654545-27.927273-9.309091-41.890909-16.290909L314.181818 709.818182c-18.618182 18.618182-48.872727 18.618182-65.163636 0L186.181818 649.309091c-18.618182-18.618182-18.618182-48.872727 0-65.163636l65.163637-65.163637c-6.981818-13.963636-13.963636-30.254545-18.618182-46.545454H139.636364c-25.6 0-46.545455-20.945455-46.545455-46.545455v-86.109091c0-25.6 20.945455-46.545455 46.545455-46.545454h93.090909c4.654545-13.963636 11.636364-27.927273 16.290909-41.890909l-67.490909-67.49091c-18.618182-18.618182-18.618182-48.872727 0-65.163636l60.509091-60.509091c18.618182-18.618182 48.872727-18.618182 65.163636 0l67.490909 67.490909c13.963636-6.981818 27.927273-11.636364 41.890909-16.290909V11.636363999999958c0-25.6 20.945455-46.545455 46.545455-46.545455h86.109091c25.6 0 46.545455 20.945455 46.545454 46.545455v97.745454c16.290909 4.654545 30.254545 11.636364 44.218182 18.618182l69.818182-69.818182c18.618182-18.618182 48.872727-18.618182 65.163636 0l60.509091 60.509091c18.618182 18.618182 18.618182 48.872727 0 65.163636l-69.818182 69.818182c6.981818 11.636364 11.636364 25.6 16.290909 39.563637H884.363636c25.6 0 46.545455 20.945455 46.545455 46.545454v86.109091c0 27.927273-20.945455 48.872727-46.545455 48.872727z m-374.690909-193.163636c-58.181818 0-104.727273 46.545455-104.727272 104.727273s46.545455 104.727273 104.727272 104.727272 104.727273-46.545455 104.727273-104.727272-48.872727-104.727273-104.727273-104.727273z"  horiz-adv-x="1024" />

    
    <glyph glyph-name="test" unicode="&#59013;" d="M814.545455 779.636364H209.454545c-25.6 0-46.545455-20.945455-46.545454-46.545455v-698.181818c0-25.6 20.945455-46.545455 46.545454-46.545455h605.09091c25.6 0 46.545455 20.945455 46.545454 46.545455V733.090909c0 25.6-20.945455 46.545455-46.545454 46.545455zM558.545455 337.45454500000005H279.272727v93.09091h279.272728v-93.09091z m186.181818 162.909091H279.272727v93.090909h465.454546v-93.090909z"  horiz-adv-x="1024" />

    
    <glyph glyph-name="share" unicode="&#59014;" d="M837.818182 756.363636H186.181818c-25.6 0-46.545455-20.945455-46.545454-46.545454v-633.018182L539.927273 477.090909h-169.890909v93.090909H651.636364c25.6 0 46.545455-20.945455 46.545454-46.545454v-279.272728h-93.090909v167.563637L204.8 11.636363999999958H837.818182c25.6 0 46.545455 20.945455 46.545454 46.545454V709.818182c0 25.6-20.945455 46.545455-46.545454 46.545454z"  horiz-adv-x="1024" />

    
    <glyph glyph-name="transfer" unicode="&#59015;" d="M363.054545 530.6181819999999c41.890909 41.890909 95.418182 60.509091 151.272728 60.509091v-93.090909l279.272727 279.272727H542.254545C430.545455 786.618182 316.509091 749.3818180000001 232.727273 663.272727c-134.981818-134.981818-151.272727-344.436364-48.872728-498.036363l137.309091 137.309091c-34.909091 74.472727-18.618182 167.563636 41.890909 228.072727zM830.836364 616.727273L698.181818 481.745455c41.890909-79.127273 30.254545-179.2-37.236363-246.69091-39.563636-39.563636-93.090909-60.509091-146.618182-60.50909v93.090909l-279.272728-279.272728h279.272728c100.072727 0 200.145455 39.563636 276.945454 116.363637 139.636364 139.636364 153.6 356.072727 39.563637 512z"  horiz-adv-x="1024" />

    
    <glyph glyph-name="wallet" unicode="&#59016;" d="M207.127273 640h609.745454c23.272727 0 44.218182 18.618182 44.218182 44.218182v4.654545c0 23.272727-18.618182 44.218182-44.218182 44.218182H207.127273C183.854545 733.090909 162.909091 714.472727 162.909091 688.8727269999999v-4.654545c0-25.6 18.618182-44.218182 44.218182-44.218182zM858.763636 593.454545H165.236364C139.636364 593.454545 116.363636 572.509091 116.363636 544.581818V81.45454500000005c0-23.272727 20.945455-46.545455 48.872728-46.545454H861.090909c23.272727 0 46.545455 20.945455 46.545455 46.545454V544.581818c0 25.6-20.945455 48.872727-48.872728 48.872727z m-256-302.545454c13.963636 0 23.272727-11.636364 23.272728-23.272727 0-13.963636-11.636364-23.272727-23.272728-23.272728h-72.145454v-72.145454c0-13.963636-11.636364-23.272727-23.272727-23.272727-13.963636 0-23.272727 11.636364-23.272728 23.272727V244.36363600000004h-72.145454c-13.963636 0-23.272727 11.636364-23.272728 23.272728 0 13.963636 11.636364 23.272727 23.272728 23.272727h72.145454v46.545454h-72.145454c-13.963636 0-23.272727 11.636364-23.272728 23.272728 0 13.963636 11.636364 23.272727 23.272728 23.272727h62.836363l-51.2 53.527273c-9.309091 9.309091-9.309091 23.272727 0 32.581818s23.272727 9.309091 32.581819 0l51.2-51.2 51.2 51.2c9.309091 9.309091 23.272727 9.309091 32.581818 0s9.309091-23.272727 0-32.581818l-51.2-51.2h60.509091c13.963636 0 23.272727-11.636364 23.272727-23.272728 0-13.963636-11.636364-23.272727-23.272727-23.272727h-72.145455v-46.545454l74.472727-2.327273z"  horiz-adv-x="1024" />

    
    <glyph glyph-name="back" unicode="&#59017;" d="M339.781818 449.163636L684.218182 795.927273l67.490909-67.490909L404.945455 384l346.763636-344.436364-67.490909-67.490909L272.290909 384z"  horiz-adv-x="1024" />

    
    <glyph glyph-name="activity" unicode="&#59018;" d="M868.072727 616.727273h-79.127272c0 90.763636-72.145455 162.909091-162.909091 162.909091-44.218182 0-83.781818-18.618182-114.036364-48.872728C481.745455 761.018182 442.181818 779.636364 397.963636 779.636364c-90.763636 0-162.909091-72.145455-162.909091-162.909091H155.927273c-20.945455 0-39.563636-18.618182-39.563637-39.563637v-200.145454c0-20.945455 18.618182-39.563636 39.563637-39.563637H186.181818v-302.545454c0-25.6 20.945455-46.545455 46.545455-46.545455h558.545454c25.6 0 46.545455 20.945455 46.545455 46.545455V337.45454500000005h30.254545c20.945455 0 39.563636 18.618182 39.563637 39.563637v200.145454c0 20.945455-18.618182 39.563636-39.563637 39.563637zM814.545455 523.636364v-93.090909H558.545455v93.090909h256z m-188.509091 162.909091c39.563636 0 69.818182-30.254545 69.818181-69.818182H558.545455v13.963636C565.527273 663.272727 593.454545 686.545455 626.036364 686.545455z m-228.072728 0c32.581818 0 60.509091-23.272727 67.490909-55.854546v-13.963636h-137.30909c0 39.563636 30.254545 69.818182 69.818181 69.818182zM209.454545 523.636364h256v-93.090909H209.454545v93.090909z m69.818182-186.181819h186.181818v-256h-186.181818V337.45454500000005z m465.454546-256h-186.181818V337.45454500000005h186.181818v-256z"  horiz-adv-x="1024" />

    
    <glyph glyph-name="clock" unicode="&#59019;" d="M512 674.909091c-193.163636 0-349.090909-155.927273-349.090909-349.090909s155.927273-349.090909 349.090909-349.090909 349.090909 155.927273 349.090909 349.090909-155.927273 349.090909-349.090909 349.090909z m0-605.090909c-141.963636 0-256 114.036364-256 256s114.036364 256 256 256 256-114.036364 256-256-114.036364-256-256-256zM395.636364 698.181818h232.727272c25.6 0 46.545455 20.945455 46.545455 46.545455s-20.945455 46.545455-46.545455 46.545454H395.636364c-25.6 0-46.545455-20.945455-46.545455-46.545454s20.945455-46.545455 46.545455-46.545455zM512 512c-25.6 0-46.545455-20.945455-46.545455-46.545455v-116.363636c0-25.6 20.945455-46.545455 46.545455-46.545454s46.545455 20.945455 46.545455 46.545454v116.363636c0 25.6-20.945455 46.545455-46.545455 46.545455z"  horiz-adv-x="1024" />

    
    <glyph glyph-name="me" unicode="&#59020;" d="M512-58.18181800000002c-93.090909 0-379.345455 0-379.345455 158.254545v25.6c0 109.381818 169.890909 186.181818 246.69091 214.109091v6.981818c-58.181818 65.163636-93.090909 155.927273-93.09091 242.036364 0 139.636364 93.090909 239.709091 225.745455 239.709091 60.509091 0 118.690909-23.272727 158.254545-62.836364 44.218182-44.218182 67.490909-104.727273 67.49091-176.872727 0-86.109091-34.909091-176.872727-93.09091-242.036364v-6.981818c76.8-27.927273 246.690909-104.727273 246.69091-214.109091v-25.6C891.345455-58.18181800000002 605.090909-58.18181800000002 512-58.18181800000002z m0 791.272727c-62.836364 0-132.654545-37.236364-132.654545-146.618182 0-65.163636 30.254545-139.636364 74.472727-186.181818 4.654545-4.654545 6.981818-9.309091 9.309091-16.290909 13.963636-39.563636 9.309091-67.490909 0-86.109091-11.636364-25.6-34.909091-41.890909-51.2-48.872727-123.345455-44.218182-188.509091-102.4-188.509091-128v-25.6c0-23.272727 60.509091-65.163636 286.254545-65.163637s286.254545 41.890909 286.254546 65.163637v25.6c0 23.272727-65.163636 81.454545-188.509091 128-16.290909 6.981818-39.563636 20.945455-51.2 48.872727-6.981818 18.618182-13.963636 46.545455 0 86.109091 2.327273 6.981818 4.654545 11.636364 9.309091 16.290909 44.218182 46.545455 74.472727 118.690909 74.472727 186.181818 0 46.545455-13.963636 86.109091-39.563636 109.381818C581.818182 721.454545 549.236364 733.090909 512 733.090909z"  horiz-adv-x="1024" />

    
    <glyph glyph-name="fingerprint" unicode="&#59021;" d="M512 460.8c-88.436364 0-160.581818-81.454545-160.581818-183.854545v-276.945455c0-25.6 20.945455-46.545455 46.545454-46.545455s46.545455 20.945455 46.545455 46.545455V276.94545500000004c0 48.872727 30.254545 90.763636 67.490909 90.763636 37.236364 0 67.490909-41.890909 67.490909-90.763636v-276.945455c0-25.6 20.945455-46.545455 46.545455-46.545455s46.545455 20.945455 46.545454 46.545455V276.94545500000004c0 102.4-72.145455 183.854545-160.581818 183.854545zM744.727273 230.39999999999998c18.618182 0 37.236364 11.636364 44.218182 32.581818 9.309091 30.254545 13.963636 60.509091 13.963636 93.090909 0 160.581818-130.327273 290.909091-290.909091 290.909091S221.090909 514.327273 221.090909 353.745455c0-32.581818 4.654545-62.836364 13.963636-93.09091 6.981818-23.272727 34.909091-37.236364 58.181819-30.254545 23.272727 6.981818 37.236364 34.909091 30.254545 58.181818-6.981818 20.945455-9.309091 41.890909-9.309091 62.836364 0 109.381818 88.436364 197.818182 197.818182 197.818182s197.818182-88.436364 197.818182-197.818182c0-20.945455-2.327273-41.890909-9.309091-62.836364-6.981818-23.272727 4.654545-51.2 30.254545-58.181818h13.963637zM512 814.545455c-244.363636 0-442.181818-197.818182-442.181818-442.181819 0-132.654545 60.509091-258.327273 162.909091-344.436363 9.309091-6.981818 18.618182-9.309091 30.254545-9.309091 13.963636 0 27.927273 6.981818 37.236364 16.290909 16.290909 20.945455 13.963636 48.872727-6.981818 65.163636C209.454545 167.56363599999997 162.909091 267.63636399999996 162.909091 372.36363600000004c0 193.163636 155.927273 349.090909 349.090909 349.090909s349.090909-155.927273 349.090909-349.090909c0-104.727273-46.545455-202.472727-125.672727-269.963636-20.945455-16.290909-23.272727-46.545455-6.981818-65.163636 16.290909-20.945455 46.545455-23.272727 65.163636-6.981819 102.4 83.781818 160.581818 209.454545 160.581818 342.109091 0 244.363636-197.818182 442.181818-442.181818 442.181819z"  horiz-adv-x="1024" />

    
    <glyph glyph-name="message" unicode="&#59023;" d="M902.981818 709.818182H121.018182C93.090909 709.818182 69.818182 686.545455 69.818182 658.6181819999999v-546.909091C69.818182 81.45454500000005 93.090909 58.18181800000002 121.018182 58.18181800000002h779.636363c27.927273 0 51.2 23.272727 51.2 51.2V658.6181819999999C954.181818 686.545455 930.909091 709.818182 902.981818 709.818182z m-128-93.090909L514.327273 370.03636400000005c-2.327273-2.327273-6.981818-2.327273-9.309091 0L246.690909 616.727273h528.290909zM162.909091 151.27272700000003V567.8545449999999l276.945454-265.30909c18.618182-18.618182 44.218182-27.927273 69.818182-27.927273s51.2 9.309091 69.818182 27.927273L861.090909 570.181818v-418.909091H162.909091z"  horiz-adv-x="1024" />

    
    <glyph glyph-name="signin" unicode="&#59024;" d="M470.109091 286.254545L370.036364 384l-65.163637-65.163636 97.745455-100.072728 67.490909-65.163636 65.163636 65.163636 197.818182 197.818182-65.163636 67.490909zM858.763636 686.545455h-116.363636V779.636364h-93.090909v-93.090909H374.690909V779.636364h-93.090909v-93.090909h-116.363636C137.309091 686.545455 116.363636 665.6 116.363636 637.672727v-600.436363c0-27.927273 20.945455-48.872727 48.872728-48.872728h693.527272c27.927273 0 48.872727 20.945455 48.872728 48.872728V637.672727c0 27.927273-20.945455 48.872727-48.872728 48.872728zM814.545455 81.45454500000005H209.454545V593.454545h605.09091v-512z"  horiz-adv-x="1024" />

    
    <glyph glyph-name="share1" unicode="&#59025;" d="M791.272727 137.30909099999997c0-4.654545 0-6.981818-2.327272-11.636364 0-2.327273-2.327273-6.981818-4.654546-9.309091l-6.981818-6.981818c-2.327273-2.327273-4.654545-2.327273-6.981818-4.654545H768c-2.327273 0-6.981818-2.327273-9.309091-2.327273H265.309091c-18.618182 0-32.581818 13.963636-32.581818 32.581818V630.6909089999999c0 4.654545 0 9.309091 2.327272 13.963636 4.654545 11.636364 16.290909 20.945455 30.254546 20.945455H465.454545V756.363636H186.181818c-25.6 0-46.545455-20.945455-46.545454-46.545454v-651.636364c0-25.6 20.945455-46.545455 46.545454-46.545454h660.945455c2.327273 0 2.327273 0 4.654545 2.327272h2.327273c2.327273 0 4.654545 2.327273 4.654545 2.327273 13.963636 6.981818 23.272727 23.272727 23.272728 39.563636V337.45454500000005h-93.090909v-200.145454zM837.818182 756.363636H556.218182v-93.090909H721.454545L330.472727 269.96363599999995l65.163637-65.163636 395.636363 395.636364V430.545455h93.090909V709.818182c0 25.6-20.945455 46.545455-46.545454 46.545454z"  horiz-adv-x="1024" />

    
    <glyph glyph-name="explain" unicode="&#59026;" d="M512 827.733333C266.24 827.733333 68.266667 629.76 68.266667 384s197.973333-443.733333 443.733333-443.733333 443.733333 197.973333 443.733333 443.733333S754.346667 827.733333 512 827.733333z m68.266667-648.533333c0-37.546667-30.72-68.266667-68.266667-68.266667s-68.266667 30.72-68.266667 68.266667v204.8c0 37.546667 30.72 68.266667 68.266667 68.266667s68.266667-30.72 68.266667-68.266667v-204.8z m-68.266667 341.333333c-37.546667 0-68.266667 30.72-68.266667 68.266667s30.72 68.266667 68.266667 68.266667 68.266667-30.72 68.266667-68.266667-30.72-68.266667-68.266667-68.266667z"  horiz-adv-x="1024" />

    
    <glyph glyph-name="see" unicode="&#59027;" d="M877.226667 585.386667c-102.4 75.093333-235.52 116.053333-365.226667 116.053333-296.96 0-512-208.213333-512-317.44s215.04-317.44 512-317.44 512 208.213333 512 317.44c0 58.026667-58.026667 139.946667-146.773333 201.386667zM512 213.33333300000004c-95.573333 0-170.666667 75.093333-170.666667 170.666667s75.093333 170.666667 170.666667 170.666667 170.666667-75.093333 170.666667-170.666667-75.093333-170.666667-170.666667-170.666667z"  horiz-adv-x="1024" />

    
    <glyph glyph-name="fail" unicode="&#59028;" d="M742.4 581.818182l-32.581818 32.581818-197.818182-197.818182-197.818182 197.818182-32.581818-32.581818 197.818182-197.818182-197.818182-197.818182 32.581818-32.581818 197.818182 197.818182 197.818182-197.818182 32.581818 32.581818-197.818182 197.818182zM512 849.454545c256 0 465.454545-209.454545 465.454545-465.454545s-209.454545-465.454545-465.454545-465.454545S46.545455 128 46.545455 384 256 849.454545 512 849.454545m0 46.545455C228.072727 896 0 667.927273 0 384s228.072727-512 512-512 512 228.072727 512 512S795.927273 896 512 896z"  horiz-adv-x="1024" />

    
    <glyph glyph-name="success" unicode="&#59029;" d="M512 849.454545c256 0 465.454545-209.454545 465.454545-465.454545s-209.454545-465.454545-465.454545-465.454545S46.545455 128 46.545455 384 256 849.454545 512 849.454545m0 46.545455C228.072727 896 0 667.927273 0 384s228.072727-512 512-512 512 228.072727 512 512S795.927273 896 512 896zM421.236364 130.327273l-230.4 228.072727 34.909091 32.581818 195.490909-195.490909 377.018181 379.345455 34.909091-34.909091z"  horiz-adv-x="1024" />

    
    <glyph glyph-name="gift" unicode="&#59030;" d="M907.946667 650.24h-215.04l81.92 81.92c10.24 10.24 10.24 23.893333 0 34.133333L709.973333 827.733333c-10.24 10.24-23.893333 10.24-34.133333 0L512 663.893333 344.746667 827.733333c-10.24 10.24-23.893333 10.24-34.133334 0L249.173333 766.293333c-10.24-10.24-10.24-23.893333 0-34.133333l81.92-81.92H116.053333c-27.306667 0-47.786667-23.893333-47.786666-47.786667v-279.893333c0-27.306667 20.48-47.786667 47.786666-47.786667H170.666667v-290.133333c0-27.306667 23.893333-51.2 51.2-51.2h580.266666c27.306667 0 51.2 23.893333 51.2 51.2v290.133333h54.613334c27.306667 0 47.786667 20.48 47.786666 47.786667V602.4533329999999c0 23.893333-20.48 47.786667-47.786666 47.786667zM204.8 513.7066669999999h614.4v-102.4H204.8v102.4z m512-443.733334H307.2v204.8h409.6v-204.8z"  horiz-adv-x="1024" />

    
    <glyph glyph-name="see2" unicode="&#59032;" d="M928.426667 578.56l-477.866667-477.866667c20.48-3.413333 40.96-3.413333 64.853333-3.413333 296.96 0 512 208.213333 512 317.44 0 47.786667-37.546667 109.226667-98.986666 163.84zM853.333333 793.6l-105.813333-105.813333c-75.093333 27.306667-153.6 44.373333-235.52 44.373333-296.96 0-512-208.213333-512-317.44 0-68.266667 85.333333-177.493333 225.28-249.173333l-95.573333-95.573334 102.4-95.573333 716.8 723.626667L853.333333 793.6zM351.573333 414.72c0 95.573333 75.093333 170.666667 170.666667 170.666667 37.546667 0 71.68-10.24 98.986667-30.72l-238.933334-238.933334c-17.066667 27.306667-30.72 61.44-30.72 98.986667z"  horiz-adv-x="1027" />

    
    <glyph glyph-name="camera" unicode="&#58927;" d="M861.090909 630.6909089999999h-132.654545l-11.636364 37.236364c-6.981818 18.618182-23.272727 32.581818-44.218182 32.581818H351.418182c-20.945455 0-37.236364-13.963636-44.218182-32.581818l-11.636364-37.236364H162.909091c-25.6 0-46.545455-20.945455-46.545455-46.545454v-467.781819c0-25.6 20.945455-46.545455 46.545455-46.545454h698.181818c25.6 0 46.545455 20.945455 46.545455 46.545454V584.1454550000001c0 25.6-20.945455 46.545455-46.545455 46.545454zM512 179.20000000000005c-93.090909 0-169.890909 76.8-169.890909 169.890909s76.8 169.890909 169.890909 169.890909 169.890909-76.8 169.890909-169.890909-76.8-169.890909-169.890909-169.890909z m246.690909 307.2c-16.290909 0-32.581818 13.963636-32.581818 32.581818 0 16.290909 13.963636 32.581818 32.581818 32.581818s32.581818-13.963636 32.581818-32.581818c0-18.618182-13.963636-32.581818-32.581818-32.581818z"  horiz-adv-x="1024" />

    
    <glyph glyph-name="fill-ok" unicode="&#58930;" d="M512 896C228.072727 896 0 667.927273 0 384s228.072727-512 512-512 512 228.072727 512 512S795.927273 896 512 896z m-95.418182-793.6L153.6 365.38181799999995 218.763636 430.545455l197.818182-197.818182 395.636364 395.636363 65.163636-65.163636-460.8-460.8z"  horiz-adv-x="1024" />

    
    <glyph glyph-name="circle" unicode="&#58933;" d="M512-128C230.4-128 0 102.39999999999998 0 384S230.4 896 512 896s512-230.4 512-512-228.072727-512-512-512z m0 977.454545C256 849.454545 46.545455 640 46.545455 384s209.454545-465.454545 465.454545-465.454545 465.454545 209.454545 465.454545 465.454545S770.327273 849.454545 512 849.454545z"  horiz-adv-x="1024" />

    
    <glyph glyph-name="checked" unicode="&#58934;" d="M887.466667-128H136.533333c-75.093333 0-136.533333 61.44-136.533333 136.533333V759.466667c0 75.093333 61.44 136.533333 136.533333 136.533333h750.933334c75.093333 0 136.533333-61.44 136.533333-136.533333v-750.933334c0-75.093333-61.44-136.533333-136.533333-136.533333zM136.533333 827.733333c-37.546667 0-68.266667-30.72-68.266666-68.266666v-750.933334c0-37.546667 30.72-68.266667 68.266666-68.266666h750.933334c37.546667 0 68.266667 30.72 68.266666 68.266666V759.466667c0 37.546667-30.72 68.266667-68.266666 68.266666H136.533333zM228.693333 414.72l242.346667-238.933333-51.2-51.2-238.933333 242.346666zM808.96 609.28l47.786667-47.786667-436.906667-436.906666-47.786667 51.2z"  horiz-adv-x="1024" />

    
    <glyph glyph-name="rect" unicode="&#58935;" d="M887.466667-128H136.533333c-75.093333 0-136.533333 61.44-136.533333 136.533333V759.466667c0 75.093333 61.44 136.533333 136.533333 136.533333h750.933334c75.093333 0 136.533333-61.44 136.533333-136.533333v-750.933334c0-75.093333-61.44-136.533333-136.533333-136.533333zM136.533333 827.733333c-37.546667 0-68.266667-30.72-68.266666-68.266666v-750.933334c0-37.546667 30.72-68.266667 68.266666-68.266666h750.933334c37.546667 0 68.266667 30.72 68.266666 68.266666V759.466667c0 37.546667-30.72 68.266667-68.266666 68.266666H136.533333z"  horiz-adv-x="1024" />

    
    <glyph glyph-name="fill-fail" unicode="&#58936;" d="M512 896C228.072727 896 0 667.927273 0 384s228.072727-512 512-512 512 228.072727 512 512S795.927273 896 512 896z m311.854545-758.690909l-65.163636-65.163636L512 318.836364 265.309091 72.14545499999997l-65.163636 65.163636L446.836364 384 200.145455 630.6909089999999l65.163636 65.163636L512 449.163636 758.690909 695.854545l65.163636-65.163636L577.163636 384l246.690909-246.690909z"  horiz-adv-x="1024" />

    
    <glyph glyph-name="close-thin" unicode="&#58937;" d="M48.264533 896l965.4272-965.4272-48.264533-48.264533L0 847.735467zM965.4272 896L0-69.42719999999997l48.264533-48.264533L1013.691733 847.735467z"  horiz-adv-x="1024" />

    


  </font>
</defs>
</svg>
